<svg width="48" height="38" viewBox="0 0 48 38" fill="none" xmlns="http://www.w3.org/2000/svg">
<g clip-path="url(#clip0_20_17)">
<path fill-rule="evenodd" clip-rule="evenodd" d="M39.3137 0.209397C39.8089 1.2759 39.5803 2.58961 40.184 1.51518C40.2384 1.4183 40.3584 1.2045 40.5491 0.178914C41.1217 0.10542 47.5318 -0.714292 47.5546 1.89894C47.611 8.4199 48.235 9.04752 45.6952 10.3721C42.5693 12.0028 42.4337 16.8525 46.0973 18.4732C46.7617 18.7676 48.8733 19.7017 47.4283 27.4007C47.1794 28.7261 42.1832 29.048 40.4527 28.3519C40.1933 27.3359 40.2952 27.2666 40.0118 27.1246C39.488 26.862 39.691 27.2403 39.3828 28.2914L39.2548 28.4772C35.4981 28.6739 33.2552 28.559 32.1474 28.5908C30.6203 28.6346 17.3129 37.6302 16.1428 37.6385C14.0165 37.6536 15.1967 36.4146 15.0826 29.4264C15.0674 28.5119 14.4855 28.9056 1.8371 28.5565C-0.719113 28.486 0.126781 20.764 0.165939 19.4345C0.183623 18.8402 1.82783 18.383 2.21647 18.1195C8.54657 13.8288 1.21731 10.0748 0.607621 9.76242C-0.111958 9.3937 -0.386062 1.12098 1.02025 0.278295C1.63752 -0.0916825 38.0729 -0.0048226 39.3137 0.209397Z" fill="#8828D2"/>
<path fill-rule="evenodd" clip-rule="evenodd" d="M28.3581 5.48838C28.745 5.54476 31.5269 5.94981 32.8296 7.45227C36.8675 12.1083 30.8077 16.3372 31.1004 17.0003C35.0149 25.8706 23.4242 27.7163 19.1198 26.0514C10.5846 22.75 15.2819 16.8587 14.4545 16.1008C13.9139 15.6056 8.98249 11.0869 13.3336 7.0422C17.996 2.70937 22.9997 8.7877 23.2477 8.51376C25.2166 6.34025 25.092 6.02539 28.3581 5.48838Z" fill="#FDFCFC"/>
<path fill-rule="evenodd" clip-rule="evenodd" d="M8.52442 16.6469C8.27305 16.5153 6.3581 15.5127 6.20905 13.9752C6.18337 13.7079 5.99642 11.7804 7.44274 10.85C10.6015 8.81889 9.14294 12.8506 10.4575 15.5783C11.396 17.5255 9.23053 16.7112 8.52442 16.6469Z" fill="#FDFBFB"/>
<path fill-rule="evenodd" clip-rule="evenodd" d="M38.9449 11.8719C39.0135 12.0644 38.9125 11.9905 39.0131 12.2749C39.0388 12.3471 39.0131 12.2749 39.376 13.1635L39.4358 13.5631C39.2973 14.0208 39.1588 14.4785 39.0203 14.9357C38.8135 15.2051 37.3057 17.1706 35.1685 16.7459C34.7167 16.6562 35.6556 16.4394 35.8438 11.0739C35.8586 10.653 37.0982 9.0879 38.9449 11.8719Z" fill="#FDFCFB"/>
<path fill-rule="evenodd" clip-rule="evenodd" d="M19.8975 21.6776C25.5308 22.5428 25.4579 21.7056 29.2002 20.2624C34.7034 18.1403 22.7257 27.8637 16.2714 21.0262C14.7939 19.4607 19.6276 21.5603 19.8975 21.6776Z" fill="#8828D2"/>
<path fill-rule="evenodd" clip-rule="evenodd" d="M27.0454 9.74558C27.3254 9.64578 30.4682 8.52708 30.3162 11.4961C30.1238 15.2527 23.5882 13.0115 27.0454 9.74558Z" fill="#8828D2"/>
<path fill-rule="evenodd" clip-rule="evenodd" d="M15.4795 11.4936C15.5675 11.2134 16.5022 8.23858 18.7317 9.73603C21.7986 11.7964 16.6168 16.1843 15.4795 11.4936Z" fill="#8828D2"/>
<path fill-rule="evenodd" clip-rule="evenodd" d="M21.9581 17.2213C19.8141 17.7166 20.5972 14.8114 22.0726 15.6332C22.953 16.1231 22.4562 16.3139 21.9581 17.2213Z" fill="#8828D2"/>
<path fill-rule="evenodd" clip-rule="evenodd" d="M24.1525 17.3342C24.0497 17.2452 23.0615 16.3908 23.7474 15.6922C24.6729 14.7497 26.9942 17.193 24.1525 17.3342Z" fill="#8828D2"/>
<path fill-rule="evenodd" clip-rule="evenodd" d="M40.149 11.4961C40.2509 11.8452 40.9199 12.1538 39.3755 13.1639C39.0125 12.2753 39.0382 12.3475 39.0125 12.2753C38.9119 11.9909 39.013 12.0648 38.9443 11.8723C39.1877 11.7613 38.9363 12.2269 39.1709 12.1195C39.2555 12.0811 39.1709 12.1195 40.149 11.4961Z" fill="white"/>
<path fill-rule="evenodd" clip-rule="evenodd" d="M39.3135 0.209682C39.343 0.21344 39.3143 0.212188 40.5488 0.179199C40.3581 1.20478 40.2381 1.41858 40.1838 1.51546C39.58 2.5899 39.8086 1.27619 39.3135 0.209682Z" fill="white"/>
<path fill-rule="evenodd" clip-rule="evenodd" d="M39.4351 13.5635C39.5374 13.6169 41.7884 14.7899 39.0195 14.9361C39.1581 14.4788 39.2966 14.0211 39.4351 13.5635Z" fill="white"/>
<path fill-rule="evenodd" clip-rule="evenodd" d="M40.4134 21.1037C39.6311 22.7039 39.0778 20.6043 39.7865 20.4155C40.2623 20.289 40.1048 20.4836 40.4134 21.1037Z" fill="white"/>
<path fill-rule="evenodd" clip-rule="evenodd" d="M40.0303 8.47767C39.9364 8.41169 38.9659 7.72978 39.5377 7.14307C40.896 5.74877 40.0644 8.36909 40.0303 8.47767Z" fill="white"/>
<path fill-rule="evenodd" clip-rule="evenodd" d="M39.8151 9.13184C40.5869 9.60036 40.474 9.7223 40.0585 10.5629L39.8273 10.4852L39.4505 10.2021C39.4454 9.56988 39.5136 9.6321 39.8151 9.13184Z" fill="white"/>
<path fill-rule="evenodd" clip-rule="evenodd" d="M40.0663 17.8149C40.7055 19.3901 39.4869 19.5734 39.396 18.9942C39.2785 18.2434 39.484 18.3073 40.0663 17.8149Z" fill="white"/>
<path fill-rule="evenodd" clip-rule="evenodd" d="M39.3848 25.6882C39.4075 25.6088 39.6753 24.6705 40.0938 24.9307C40.3856 25.1119 40.8286 27.6441 39.3848 25.6882Z" fill="white"/>
<path fill-rule="evenodd" clip-rule="evenodd" d="M39.7286 4.81787C40.3256 5.19912 40.6022 5.0584 40.3972 5.61295C40.1972 6.15497 38.6818 6.19965 39.7286 4.81787Z" fill="white"/>
<path fill-rule="evenodd" clip-rule="evenodd" d="M40.0602 3.85447C39.1019 3.58639 40.1861 2.19458 40.4139 3.15586C40.4282 3.21641 40.4139 3.15586 40.0602 3.85447Z" fill="white"/>
<path fill-rule="evenodd" clip-rule="evenodd" d="M39.6871 16.0404L40.2416 16.0054C40.4947 16.7161 40.472 16.8046 39.8075 17.1729C39.472 16.6025 39.3414 16.6326 39.6871 16.0404Z" fill="white"/>
<path fill-rule="evenodd" clip-rule="evenodd" d="M40.4033 23.2136C39.8529 24.5289 39.1249 22.8503 39.7233 22.7646C39.7233 22.7646 40.3489 23.1776 40.4033 23.2136Z" fill="white"/>
<path fill-rule="evenodd" clip-rule="evenodd" d="M39.3828 28.2916C39.691 27.2406 39.4881 26.8622 40.0119 27.1249C40.2952 27.2669 40.1933 27.3362 40.4527 28.3522C39.8927 28.1926 39.979 28.1367 39.3828 28.2916Z" fill="white"/>
<path fill-rule="evenodd" clip-rule="evenodd" d="M39.3829 28.2913C39.9791 28.1364 39.8928 28.1923 40.4528 28.3519C40.0536 28.3936 39.6545 28.4354 39.2549 28.4771L39.3829 28.2913Z" fill="#F9C1AB"/>
</g>
<defs>
<clipPath id="clip0_20_17">
<rect width="48" height="38" fill="white"/>
</clipPath>
</defs>
</svg>
