<svg width="48" height="38" viewBox="0 0 48 38" fill="none" xmlns="http://www.w3.org/2000/svg">
<g clip-path="url(#clip0_20_138)">
<path fill-rule="evenodd" clip-rule="evenodd" d="M39.3137 0.209153C39.8089 1.27566 39.5803 2.58937 40.184 1.51493C40.2384 1.41805 40.3584 1.20425 40.5491 0.17867C41.1217 0.105176 47.5318 -0.714536 47.5546 1.89869C47.611 8.41965 48.235 9.04728 45.6952 10.3719C42.5693 12.0025 42.4337 16.8523 46.0973 18.4729C46.7617 18.7673 48.8733 19.7015 47.4283 27.4004C47.1794 28.7258 42.1832 29.0478 40.4527 28.3517C40.1933 27.3357 40.2952 27.2664 40.0118 27.1244C39.488 26.8617 39.691 27.2401 39.3828 28.2911L39.2548 28.477C35.4981 28.6736 33.2552 28.5588 32.1474 28.5905C30.6203 28.6344 17.3129 37.6299 16.1428 37.6383C14.0165 37.6533 15.1967 36.4144 15.0826 29.4261C15.0674 28.5116 14.4855 28.9054 1.8371 28.5563C-0.719113 28.4857 0.126781 20.7638 0.165939 19.4342C0.183623 18.84 1.82783 18.3827 2.21647 18.1192C8.54657 13.8286 1.21731 10.0745 0.607621 9.76218C-0.111958 9.39345 -0.386062 1.12073 1.02025 0.278051C1.63752 -0.0919266 38.0729 -0.00506674 39.3137 0.209153Z" fill="#8828D2"/>
<path fill-rule="evenodd" clip-rule="evenodd" d="M28.3581 5.48838C28.745 5.54476 31.5269 5.94981 32.8296 7.45227C36.8675 12.1083 30.8077 16.3372 31.1004 17.0003C35.0149 25.8706 23.4242 27.7163 19.1198 26.0514C10.5846 22.75 15.2819 16.8587 14.4545 16.1008C13.9139 15.6056 8.98249 11.0869 13.3336 7.0422C17.996 2.70937 22.9997 8.7877 23.2477 8.51376C25.2166 6.34025 25.092 6.02539 28.3581 5.48838Z" fill="#FDFCFC"/>
<path fill-rule="evenodd" clip-rule="evenodd" d="M8.52442 16.6471C8.27305 16.5156 6.3581 15.513 6.20905 13.9754C6.18337 13.7082 5.99642 11.7806 7.44274 10.8503C10.6015 8.81913 9.14294 12.8509 10.4575 15.5785C11.396 17.5257 9.23053 16.7114 8.52442 16.6471Z" fill="#FDFBFB"/>
<path fill-rule="evenodd" clip-rule="evenodd" d="M38.9449 11.8719C39.0135 12.0644 38.9125 11.9905 39.0131 12.2749C39.0388 12.3471 39.0131 12.2749 39.376 13.1635L39.4358 13.5631C39.2973 14.0208 39.1588 14.4785 39.0203 14.9357C38.8135 15.2051 37.3057 17.1706 35.1685 16.7459C34.7167 16.6562 35.6556 16.4394 35.8438 11.0739C35.8586 10.653 37.0982 9.0879 38.9449 11.8719Z" fill="#FDFCFB"/>
<path fill-rule="evenodd" clip-rule="evenodd" d="M19.8975 21.6776C25.5308 22.5428 25.4579 21.7056 29.2002 20.2624C34.7034 18.1403 22.7257 27.8637 16.2714 21.0262C14.7939 19.4607 19.6276 21.5603 19.8975 21.6776Z" fill="#8828D2"/>
<path fill-rule="evenodd" clip-rule="evenodd" d="M27.0454 9.74509C27.3254 9.64529 30.4682 8.52659 30.3162 11.4956C30.1238 15.2522 23.5882 13.011 27.0454 9.74509Z" fill="#8828D2"/>
<path fill-rule="evenodd" clip-rule="evenodd" d="M15.4795 11.4931C15.5675 11.2129 16.5022 8.23809 18.7317 9.73554C21.7986 11.7959 16.6168 16.1838 15.4795 11.4931Z" fill="#8828D2"/>
<path fill-rule="evenodd" clip-rule="evenodd" d="M21.9581 17.2213C19.8141 17.7166 20.5972 14.8114 22.0726 15.6332C22.953 16.1231 22.4562 16.3139 21.9581 17.2213Z" fill="#8828D2"/>
<path fill-rule="evenodd" clip-rule="evenodd" d="M24.1525 17.3339C24.0497 17.245 23.0615 16.3906 23.7474 15.692C24.6729 14.7495 26.9942 17.1928 24.1525 17.3339Z" fill="#8828D2"/>
<path fill-rule="evenodd" clip-rule="evenodd" d="M40.149 11.4958C40.2509 11.8449 40.9199 12.1535 39.3755 13.1637C39.0125 12.2751 39.0382 12.3473 39.0125 12.2751C38.9119 11.9907 39.013 12.0646 38.9443 11.8721C39.1877 11.761 38.9363 12.2266 39.1709 12.1193C39.2555 12.0809 39.1709 12.1193 40.149 11.4958Z" fill="white"/>
<path fill-rule="evenodd" clip-rule="evenodd" d="M39.3135 0.209194C39.343 0.212952 39.3143 0.2117 40.5488 0.178711C40.3581 1.20429 40.2381 1.41809 40.1838 1.51497C39.58 2.58941 39.8086 1.2757 39.3135 0.209194Z" fill="white"/>
<path fill-rule="evenodd" clip-rule="evenodd" d="M39.4351 13.5632C39.5374 13.6167 41.7884 14.7897 39.0195 14.9358C39.1581 14.4786 39.2966 14.0209 39.4351 13.5632Z" fill="white"/>
<path fill-rule="evenodd" clip-rule="evenodd" d="M40.4134 21.1035C39.6311 22.7036 39.0778 20.604 39.7865 20.4153C40.2623 20.2888 40.1048 20.4834 40.4134 21.1035Z" fill="white"/>
<path fill-rule="evenodd" clip-rule="evenodd" d="M40.0303 8.47742C39.9364 8.41144 38.9659 7.72953 39.5377 7.14283C40.896 5.74852 40.0644 8.36885 40.0303 8.47742Z" fill="white"/>
<path fill-rule="evenodd" clip-rule="evenodd" d="M39.8151 9.13135C40.5869 9.59987 40.474 9.72181 40.0585 10.5624L39.8273 10.4847L39.4505 10.2016C39.4454 9.56939 39.5136 9.63161 39.8151 9.13135Z" fill="white"/>
<path fill-rule="evenodd" clip-rule="evenodd" d="M40.0663 17.8147C40.7055 19.3898 39.4869 19.5731 39.396 18.9939C39.2785 18.2431 39.484 18.307 40.0663 17.8147Z" fill="white"/>
<path fill-rule="evenodd" clip-rule="evenodd" d="M39.3848 25.6882C39.4075 25.6088 39.6753 24.6705 40.0938 24.9307C40.3856 25.1119 40.8286 27.6441 39.3848 25.6882Z" fill="white"/>
<path fill-rule="evenodd" clip-rule="evenodd" d="M39.7286 4.81763C40.3256 5.19888 40.6022 5.05816 40.3972 5.61271C40.1972 6.15473 38.6818 6.19941 39.7286 4.81763Z" fill="white"/>
<path fill-rule="evenodd" clip-rule="evenodd" d="M40.0602 3.85447C39.1019 3.58639 40.1861 2.19458 40.4139 3.15586C40.4282 3.21641 40.4139 3.15586 40.0602 3.85447Z" fill="white"/>
<path fill-rule="evenodd" clip-rule="evenodd" d="M39.6871 16.0402L40.2416 16.0051C40.4947 16.7159 40.472 16.8044 39.8075 17.1727C39.472 16.6023 39.3414 16.6323 39.6871 16.0402Z" fill="white"/>
<path fill-rule="evenodd" clip-rule="evenodd" d="M40.4033 23.2136C39.8529 24.5289 39.1249 22.8503 39.7233 22.7646C39.7233 22.7646 40.3489 23.1776 40.4033 23.2136Z" fill="white"/>
<path fill-rule="evenodd" clip-rule="evenodd" d="M39.3828 28.2914C39.691 27.2403 39.4881 26.862 40.0119 27.1246C40.2952 27.2666 40.1933 27.3359 40.4527 28.3519C39.8927 28.1924 39.979 28.1364 39.3828 28.2914Z" fill="white"/>
<path fill-rule="evenodd" clip-rule="evenodd" d="M39.3829 28.2913C39.9791 28.1364 39.8928 28.1923 40.4528 28.3519C40.0536 28.3936 39.6545 28.4354 39.2549 28.4771L39.3829 28.2913Z" fill="#F9C1AB"/>
</g>
<defs>
<clipPath id="clip0_20_138">
<rect width="48" height="38" fill="white"/>
</clipPath>
</defs>
</svg>
