<svg width="1280" height="960" viewBox="0 0 1280 960" fill="none" xmlns="http://www.w3.org/2000/svg">
  <rect width="1280" height="960" rx="48" fill="#F5F5F5"/>
  <rect width="1280" height="960" rx="48" fill="url(#paint0_linear_205_2)" fill-opacity="0.16"/>
  <rect x="94" y="86" width="1092" height="788" rx="34" fill="#FFFFFF"/>
  <rect x="94" y="86" width="1092" height="92" rx="34" fill="#FFFFFF"/>
  <rect x="126" y="118" width="266" height="46" rx="14" fill="#F0EEF4"/>
  <circle cx="154" cy="141" r="7" fill="#B469F6"/>
  <rect x="176" y="135" width="140" height="12" rx="6" fill="#CBC5D4"/>
  <rect x="1000" y="110" width="140" height="58" rx="29" fill="#FFFFFF" stroke="#EAE7F2" stroke-width="2"/>
  <circle cx="1068" cy="139" r="20" fill="url(#paint1_linear_205_2)"/>
  <rect x="122" y="176" width="236" height="656" fill="#FFFFFF"/>
  <rect x="152" y="260" width="180" height="50" rx="14" fill="#8E2BDE"/>
  <rect x="182" y="351" width="120" height="14" rx="7" fill="#D4D0DA"/>
  <rect x="182" y="409" width="132" height="14" rx="7" fill="#D4D0DA"/>
  <rect x="182" y="467" width="110" height="14" rx="7" fill="#D4D0DA"/>
  <rect x="182" y="525" width="136" height="14" rx="7" fill="#D4D0DA"/>
  <rect x="182" y="583" width="114" height="14" rx="7" fill="#D4D0DA"/>
  <rect x="182" y="641" width="128" height="14" rx="7" fill="#D4D0DA"/>
  <rect x="182" y="699" width="120" height="14" rx="7" fill="#D4D0DA"/>
  <rect x="154" y="684" width="176" height="122" rx="18" fill="url(#paint2_linear_205_2)"/>
  <path d="M154 766C214 702 250 694 292 716C324 734 346 764 330 806H154V766Z" fill="#CA90FB" fill-opacity="0.55"/>
  <rect x="404" y="208" width="244" height="128" rx="20" fill="#FFFFFF"/>
  <rect x="672" y="208" width="244" height="128" rx="20" fill="#FFFFFF"/>
  <rect x="940" y="208" width="124" height="128" rx="20" fill="#FFFFFF"/>
  <rect x="1090" y="208" width="96" height="322" rx="20" fill="#FFFFFF"/>
  <rect x="404" y="366" width="660" height="286" rx="22" fill="#FFFFFF"/>
  <rect x="1090" y="556" width="96" height="250" rx="20" fill="#FFFFFF"/>
  <rect x="404" y="684" width="660" height="122" rx="22" fill="#FFFFFF"/>
  <path d="M468 560C510 500 552 460 594 460C636 460 678 534 720 534C762 534 804 472 846 472C888 472 930 524 972 524" stroke="#8E2BDE" stroke-width="10" stroke-linecap="round"/>
  <path d="M468 520C510 548 552 548 594 510C636 472 678 470 720 504C762 538 804 548 846 514C888 480 930 486 972 542" stroke="#F0A64F" stroke-width="8" stroke-linecap="round"/>
  <defs>
    <linearGradient id="paint0_linear_205_2" x1="640" y1="0" x2="640" y2="960" gradientUnits="userSpaceOnUse">
      <stop stop-color="#A850EB"/>
      <stop offset="1" stop-color="#A850EB" stop-opacity="0"/>
    </linearGradient>
    <linearGradient id="paint1_linear_205_2" x1="1048" y1="119" x2="1088" y2="159" gradientUnits="userSpaceOnUse">
      <stop stop-color="#F8B6D6"/>
      <stop offset="1" stop-color="#EBA8FF"/>
    </linearGradient>
    <linearGradient id="paint2_linear_205_2" x1="154" y1="684" x2="330" y2="806" gradientUnits="userSpaceOnUse">
      <stop stop-color="#4B1C7A"/>
      <stop offset="1" stop-color="#2A043D"/>
    </linearGradient>
  </defs>
</svg>
