<svg width="48" height="38" viewBox="0 0 48 38" fill="none" xmlns="http://www.w3.org/2000/svg">
<path d="M18.6282 3.27248C20.6201 3.27248 22.4778 4.70722 23.1484 7.00687C23.3946 7.96813 23.4947 8.93144 23.5908 9.85991L23.6809 10.7043C24.0252 13.5225 24.0252 27.3676 23.6809 30.2063L23.5908 31.0815C23.5047 31.9649 23.4167 32.879 23.1624 33.8546C22.4918 36.1481 20.7041 37.6361 18.6742 37.6361C18.6102 37.6361 18.5461 37.6361 18.474 37.634C17.353 37.634 16.1339 36.9454 15.4432 36.3448L8.71094 30.731H5.25371C2.58522 30.731 0.6314 28.7982 0.277069 25.8079C-0.131312 22.8175 -0.0512373 17.6873 0.277069 14.9696C0.663429 12.1391 2.70934 10.1776 5.25371 10.1776H8.71094L15.3151 4.64573C16.1118 3.95296 17.5172 3.2684 18.6282 3.27248ZM34.9174 3.69451C35.7141 3.12882 36.8092 3.33583 37.3557 4.14542C40.3505 8.55411 42 14.3483 42 20.4541C42 26.564 40.3505 32.3561 37.3557 36.7648C37.0294 37.2465 36.4909 37.5355 35.9163 37.5355C35.56 37.5355 35.2157 37.4248 34.9194 37.2157C34.1267 36.648 33.9305 35.531 34.479 34.7193C37.0694 30.903 38.4967 25.8363 38.4967 20.4541C38.4967 15.0739 37.0694 10.0073 34.479 6.19092C33.9305 5.38133 34.1267 4.26225 34.9174 3.69451ZM28.8814 9.49303C29.6801 8.92939 30.7711 9.13231 31.3216 9.94395C33.2554 12.7929 34.3224 16.5252 34.3224 20.4543C34.3224 24.3834 33.2554 28.1157 31.3216 30.9646C30.9933 31.4463 30.4568 31.7353 29.8823 31.7353C29.526 31.7353 29.1796 31.6246 28.8834 31.4156C28.0906 30.8478 27.8944 29.7287 28.445 28.9191C29.9764 26.6625 30.8192 23.6558 30.8192 20.4543C30.8192 17.2508 29.9764 14.2461 28.445 11.9894C27.8944 11.1799 28.0906 10.0608 28.8814 9.49303Z" fill="#8828D2"/>
</svg>
