<svg width="1600" height="1000" viewBox="0 0 1600 1000" fill="none" xmlns="http://www.w3.org/2000/svg">
  <rect width="1600" height="1000" fill="#300444"/>
  <path d="M1512 -58C1274 66 1136 286 1112 520C1084 788 1234 1002 1454 1088H1600V-58H1512Z" fill="#6D2BA8"/>
  <path d="M-30 754C154 614 292 592 416 662C546 734 588 898 714 952C830 1002 1008 926 1128 808C1250 688 1288 530 1238 420C1180 294 1020 252 942 324C818 438 794 728 658 770C566 798 522 678 428 630C284 556 100 592 -30 754Z" fill="#4A126F"/>
  <path d="M814 190C938 116 1102 98 1228 140C1358 182 1456 284 1494 408C1532 532 1502 676 1410 740C1332 794 1228 782 1132 724C972 628 934 354 814 190Z" fill="#8C49C7"/>
  <path d="M-30 928C152 700 346 610 492 648C642 688 734 842 870 896C1030 958 1244 884 1414 728C1296 826 1158 880 1032 872C870 862 754 756 628 706C478 648 298 682 84 842L-30 928Z" fill="#240234"/>
  <path d="M796 522C878 422 934 258 1084 204C1178 170 1282 190 1368 250C1452 308 1510 400 1522 498C1532 584 1506 670 1438 726C1380 772 1298 784 1216 758C1048 706 980 476 862 446C832 438 810 452 796 522Z" fill="#D8A8FF" fill-opacity="0.95"/>
  <path d="M-52 862C138 782 274 704 364 624C438 560 486 460 570 422C684 370 830 438 870 562C904 664 854 790 758 836C604 908 422 774 262 786C156 794 54 842 -52 862Z" fill="#BB82F5" fill-opacity="0.35"/>
</svg>
